<svg width="12" height="12" viewBox="0 0 12 12" fill="none" xmlns="http://www.w3.org/2000/svg">
<path d="M12 11.3723L8.64791 8.02024C9.45339 7.05322 9.85505 5.81289 9.76934 4.55728C9.68362 3.30166 9.11712 2.12742 8.18769 1.27884C7.25827 0.430261 6.03746 -0.0273283 4.77925 0.00126352C3.52103 0.0298554 2.32227 0.542427 1.43235 1.43235C0.542427 2.32227 0.0298554 3.52103 0.00126352 4.77925C-0.0273283 6.03746 0.430261 7.25827 1.27884 8.18769C2.12742 9.11712 3.30166 9.68362 4.55728 9.76934C5.81289 9.85505 7.05322 9.45339 8.02024 8.64791L11.3723 12L12 11.3723ZM0.903435 4.8982C0.903435 4.10811 1.13772 3.33576 1.57667 2.67883C2.01562 2.02189 2.63952 1.50987 3.36947 1.20752C4.09942 0.905164 4.90263 0.826054 5.67754 0.980193C6.45245 1.13433 7.16424 1.5148 7.72292 2.07347C8.2816 2.63215 8.66207 3.34395 8.8162 4.11886C8.97034 4.89377 8.89123 5.69698 8.58888 6.42693C8.28652 7.15688 7.77451 7.78077 7.11757 8.21972C6.46063 8.65867 5.68829 8.89296 4.8982 8.89296C3.83908 8.89179 2.82368 8.47053 2.07477 7.72163C1.32586 6.97272 0.90461 5.95731 0.903435 4.8982Z" fill="#034EA2"/>
</svg>
